<svg width="512" height="512" viewBox="0 0 512 512" fill="none" xmlns="http://www.w3.org/2000/svg">
<g clip-path="url(#clip0_401_2)">
<circle cx="256" cy="256" r="256" fill="#171A21"/>
<path d="M156.958 464.269C153.779 466.76 149.721 468 144.734 468C141.137 468 137.992 467.541 135.303 466.605C132.63 465.68 130.189 464.125 128 461.922L133.801 456.098C135.165 457.476 136.782 458.473 138.657 459.076C140.527 459.691 142.594 459.995 144.871 459.995C150.271 459.995 152.982 458.074 152.982 454.265C152.982 452.654 152.57 451.403 151.756 450.512C150.942 449.626 149.523 449.039 147.5 448.729L144.92 448.331L141.957 447.954C138.041 447.384 135.066 446.116 133.048 444.129C130.854 441.931 129.76 438.903 129.76 435.067C129.76 430.881 131.2 427.496 134.071 424.938C136.952 422.364 140.835 421.085 145.745 421.085C148.946 421.085 151.739 421.495 154.098 422.347C156.468 423.194 158.613 424.567 160.532 426.466L154.874 432.099C153.576 430.854 152.157 430.012 150.595 429.581C149.028 429.151 147.335 428.929 145.476 428.929C143.199 428.929 141.451 429.472 140.23 430.577C139.004 431.679 138.393 433.063 138.393 434.746C138.393 435.952 138.866 437.049 139.806 438.001C140.758 438.969 142.149 439.59 143.997 439.85L146.757 440.232L149.408 440.625C151.464 440.929 153.186 441.367 154.582 441.926C155.979 442.474 157.172 443.243 158.157 444.195C160.521 446.437 161.698 449.704 161.698 453.994C161.698 458.362 160.109 461.778 156.958 464.269ZM195.385 429.434V467.579H186.422V429.434H174.445V421.424H207.362V429.434H195.385ZM226.218 467.574V421.421H256.441V429.432H235.204V440.32H253.29V448.331H235.204V459.563H256.441V467.574H226.218ZM302.825 467.574L300.131 459.397H283.837L281.066 467.574H271.734L288.412 421.421H295.424L312.185 467.574H302.825ZM292.146 435.033L286.35 451.796H297.744L292.146 435.033ZM360.631 467.574V440.686L351.943 458.19H345.894L337.095 440.686V467.574H328.132V421.421H336.985L348.918 446.371L360.796 421.421H369.649V467.574H360.631ZM389.061 420C392.36 420 395 422.69 395 426.056C395 429.472 392.36 432.127 389.061 432.127C385.762 432.127 383.122 429.472 383.122 426.056C383.122 422.69 385.762 420 389.061 420ZM389.061 420.952C386.422 420.952 384.277 423.227 384.277 426.056C384.277 428.935 386.422 431.191 389.061 431.191C391.756 431.219 393.9 428.935 393.9 426.084C393.9 423.227 391.756 420.952 389.061 420.952ZM387.961 429.581H386.861V422.829C387.411 422.751 387.961 422.668 388.786 422.668C389.776 422.668 390.436 422.884 390.876 423.178C391.261 423.477 391.481 423.931 391.481 424.578C391.481 425.47 390.876 425.995 390.161 426.217V426.267C390.766 426.372 391.151 426.914 391.261 427.905C391.426 428.957 391.591 429.367 391.701 429.581H390.601C390.436 429.367 390.271 428.747 390.106 427.861C389.941 426.997 389.556 426.682 388.676 426.682H387.961V429.581ZM387.961 425.835H388.731C389.611 425.835 390.326 425.519 390.326 424.683C390.326 424.091 389.886 423.504 388.731 423.504C388.346 423.504 388.126 423.526 387.961 423.56V425.835Z" fill="url(#paint0_linear_401_2)"/>
<g filter="url(#filter0_d_401_2)">
<path d="M464.471 219C464.471 219 446.471 202 409.471 208C405.471 179 374.471 162 374.471 162C374.471 162 345.471 197 366.471 236C360.471 239 350.471 243 335.471 243H60.4712C55.4712 262 55.4712 388 193.471 388C292.471 388 366.471 342 401.471 258C453.471 262 464.471 219 464.471 219Z" fill="url(#paint1_linear_401_2)"/>
<path d="M374.545 162.71C374.562 162.688 374.579 162.666 374.595 162.645C374.819 162.775 375.142 162.965 375.551 163.214C376.399 163.731 377.618 164.503 379.094 165.521C382.046 167.557 386.024 170.571 390.126 174.487C398.337 182.325 406.998 193.728 408.976 208.068L409.046 208.576L409.551 208.494C427.96 205.508 441.621 208.247 450.667 211.717C455.192 213.452 458.566 215.372 460.805 216.854C461.924 217.595 462.759 218.227 463.312 218.671C463.573 218.88 463.771 219.048 463.907 219.166C463.892 219.217 463.875 219.275 463.856 219.34C463.764 219.647 463.623 220.1 463.424 220.677C463.027 221.831 462.4 223.479 461.487 225.446C459.658 229.381 456.684 234.585 452.1 239.665C442.947 249.808 427.345 259.489 401.51 257.501L401.149 257.474L401.01 257.808C366.096 341.6 292.294 387.5 193.471 387.5C159.049 387.5 133.27 379.644 114.034 367.592C94.7969 355.54 82.0737 339.273 73.7951 322.405C65.5148 305.533 61.6831 288.062 60.2344 273.622C58.8215 259.539 59.6792 248.383 60.8607 243.5H335.471C350.568 243.5 360.645 239.472 366.695 236.447L367.156 236.217L366.911 235.763C356.496 216.419 358.475 198.071 363.07 184.536C365.367 177.767 368.318 172.207 370.694 168.34C371.882 166.407 372.925 164.898 373.67 163.874C374.043 163.362 374.341 162.972 374.545 162.71Z" stroke="white"/>
</g>
<g filter="url(#filter1_d_401_2)">
<path d="M288.471 217H330.471ZM238.471 217H280.471ZM189.471 217H231.471ZM140.471 217H181.471ZM90.4713 217H132.471ZM140.471 171H181.471ZM189.471 171H231.471ZM238.471 171H280.471ZM238.471 125H280.471Z" fill="black"/>
<path d="M288.471 217H330.471M238.471 217H280.471M189.471 217H231.471M140.471 217H181.471M90.4713 217H132.471M140.471 171H181.471M189.471 171H231.471M238.471 171H280.471M238.471 125H280.471" stroke="#2A475E" stroke-width="38"/>
</g>
<path d="M297.668 249C279.835 249 265.332 263.352 265.332 280.994C265.332 281.135 265.332 281.276 265.34 281.409L244.508 311.3C241.134 311.154 237.748 311.736 234.537 313.044C233.122 313.613 231.796 314.315 230.552 315.123L136.672 276.722C135.093 269.492 130.095 263.109 122.687 260.049C110.672 255.1 96.8249 260.744 91.8149 272.637C86.809 284.522 92.5166 298.224 104.532 303.177C110.349 305.575 116.763 305.587 122.597 303.218C123.939 302.669 125.204 301.99 126.411 301.235L220.499 339.725C222.123 346.886 227.1 353.176 234.444 356.2C246.459 361.161 260.309 355.51 265.311 343.633C266.609 340.532 267.216 337.274 267.127 334.024L296.933 312.983C297.178 312.991 297.423 312.995 297.668 312.995C315.5 312.995 330 298.636 330 280.994C330 263.352 315.5 249 297.668 249ZM106.608 298.248C99.6236 295.37 95.401 288.656 95.401 281.591C95.401 279.282 95.8498 276.944 96.8045 274.692C100.66 265.516 111.345 261.16 120.61 264.979C124.983 266.779 128.243 270.081 130.095 274.026L119.321 269.617C112.491 266.803 104.642 270.001 101.79 276.763C98.9464 283.529 102.182 291.304 109.011 294.118L119.818 298.535C115.514 300.089 110.855 300.008 106.608 298.248ZM260.338 341.57C256.466 350.742 245.794 355.098 236.516 351.279C232.236 349.515 229.005 346.289 227.141 342.442L237.667 346.753C244.508 349.571 252.358 346.366 255.201 339.608C258.053 332.846 254.818 325.078 247.98 322.26L237.1 317.808C241.298 316.233 246.071 316.177 250.53 318.009C255.026 319.858 258.514 323.334 260.362 327.783C262.215 332.232 262.206 337.137 260.338 341.57ZM297.668 302.317C285.792 302.317 276.127 292.75 276.127 280.994C276.127 269.246 285.792 259.678 297.668 259.678C309.544 259.678 319.213 269.246 319.213 280.994C319.213 292.75 309.544 302.317 297.668 302.317ZM297.7 296.972C288.77 296.972 281.524 289.807 281.524 280.961C281.524 272.116 288.77 264.942 297.7 264.942C306.639 264.942 313.889 272.116 313.889 280.961C313.889 289.807 306.639 296.972 297.7 296.972Z" fill="url(#paint2_linear_401_2)"/>
</g>
<defs>
<filter id="filter0_d_401_2" x="55" y="162" width="413.471" height="234" filterUnits="userSpaceOnUse" color-interpolation-filters="sRGB">
<feFlood flood-opacity="0" result="BackgroundImageFix"/>
<feColorMatrix in="SourceAlpha" type="matrix" values="0 0 0 0 0 0 0 0 0 0 0 0 0 0 0 0 0 0 127 0" result="hardAlpha"/>
<feOffset dy="4"/>
<feGaussianBlur stdDeviation="2"/>
<feComposite in2="hardAlpha" operator="out"/>
<feColorMatrix type="matrix" values="0 0 0 0 0 0 0 0 0 0 0 0 0 0 0 0 0 0 0.25 0"/>
<feBlend mode="normal" in2="BackgroundImageFix" result="effect1_dropShadow_401_2"/>
<feBlend mode="normal" in="SourceGraphic" in2="effect1_dropShadow_401_2" result="shape"/>
</filter>
<filter id="filter1_d_401_2" x="86.4713" y="106" width="248" height="138" filterUnits="userSpaceOnUse" color-interpolation-filters="sRGB">
<feFlood flood-opacity="0" result="BackgroundImageFix"/>
<feColorMatrix in="SourceAlpha" type="matrix" values="0 0 0 0 0 0 0 0 0 0 0 0 0 0 0 0 0 0 127 0" result="hardAlpha"/>
<feOffset dy="4"/>
<feGaussianBlur stdDeviation="2"/>
<feComposite in2="hardAlpha" operator="out"/>
<feColorMatrix type="matrix" values="0 0 0 0 0 0 0 0 0 0 0 0 0 0 0 0 0 0 0.25 0"/>
<feBlend mode="normal" in2="BackgroundImageFix" result="effect1_dropShadow_401_2"/>
<feBlend mode="normal" in="SourceGraphic" in2="effect1_dropShadow_401_2" result="shape"/>
</filter>
<linearGradient id="paint0_linear_401_2" x1="13478" y1="420" x2="13478" y2="5220" gradientUnits="userSpaceOnUse">
<stop stop-color="#F6F6F6"/>
<stop offset="1" stop-color="#989693"/>
</linearGradient>
<linearGradient id="paint1_linear_401_2" x1="261.736" y1="162" x2="261.736" y2="388" gradientUnits="userSpaceOnUse">
<stop offset="0.09375" stop-color="#171A21"/>
<stop offset="0.46875" stop-color="#1B2838"/>
<stop offset="0.848958" stop-color="#2A475E"/>
<stop offset="0.958333" stop-color="#66C0F4"/>
<stop offset="1" stop-color="white"/>
</linearGradient>
<linearGradient id="paint2_linear_401_2" x1="12090" y1="249" x2="12090" y2="11149" gradientUnits="userSpaceOnUse">
<stop stop-color="#EFEFEE"/>
<stop offset="1" stop-color="#84827E"/>
</linearGradient>
<clipPath id="clip0_401_2">
<rect width="512" height="512" fill="white"/>
</clipPath>
</defs>
</svg>
